<?xml version="1.0" encoding="utf-8"?>
<!-- Generator: Adobe Illustrator 24.1.3, SVG Export Plug-In . SVG Version: 6.00 Build 0)  -->
<svg version="1.1" id="ff13122b-c9a2-4eb3-994d-202711f70fc9"
	 xmlns="http://www.w3.org/2000/svg" xmlns:xlink="http://www.w3.org/1999/xlink" x="0px" y="0px" viewBox="0 0 746 415.3"
	 style="enable-background:new 0 0 746 415.3;" xml:space="preserve">
<style type="text/css">
	.st0{fill:#F1F1F1;}
	.st1{fill:#FFB7B7;}
	.st2{fill:#2F2E41;}
	.st3{fill:#9F616A;}
	.st4{fill:#3F3D56;}
	.st5{opacity:0.2;enable-background:new    ;}
	.st6{fill:#CBCBCB;}
</style>
<path class="st0" d="M680.6,414.6v-72.3C680.6,342.3,708.8,393.6,680.6,414.6z"/>
<path class="st0" d="M682.3,414.6l-53.3-48.9C629.1,365.7,685.9,379.6,682.3,414.6z"/>
<path class="st1" d="M391.6,153.2c0.3,0.3,0.6,0.7,0.9,1.1l40.8-1l4.8-8.7l14.1,5.5l-6.9,16.2c-1.2,2.7-3.9,4.3-6.9,4l-46.2-5.6
	c-3,3.7-8.4,4.4-12.1,1.4s-4.4-8.4-1.4-12.1c3-3.7,8.4-4.4,12.1-1.4C391.1,152.7,391.3,152.9,391.6,153.2L391.6,153.2z"/>
<polygon class="st1" points="524.8,401.3 511.3,401.3 504.9,349.4 524.8,349.5 "/>
<path class="st2" d="M528.2,414.3l-43.3,0v-0.5c0-9.3,7.5-16.9,16.9-16.9h0l26.5,0L528.2,414.3z"/>
<polygon class="st1" points="402.8,401 390.4,395.7 404.9,345.5 423.1,353.3 "/>
<path class="st2" d="M400.8,414.3l-39.8-17l0.2-0.5c3.7-8.6,13.6-12.5,22.1-8.9l0,0l24.3,10.4L400.8,414.3z"/>
<polygon class="st1" points="459.5,164.4 458.5,180.1 486.9,183.2 516.6,186.4 507.8,162.5 "/>
<path class="st2" d="M457.6,180.3l-11-76.9l19.1-6.3l5.6-7.7l27.3,1.6l4,9l14.6,6.9l-2.2,41.6l1.6,34.8L457.6,180.3z"/>
<path class="st2" d="M450.7,159.7l-19.4-7.8l0.1-0.3c0.1-0.3,8.4-34.9,9.5-40.5c1.1-5.8,5.3-7.4,5.5-7.5l0.1,0l7.7,2.3l3.4,26.6
	L450.7,159.7z"/>
<path class="st2" d="M412.8,391.9l-25.9-5.3l41.4-114.2l14.2-38.9c0,0,9-31.2,13-43.3l2.4-16.2l58,6.4c0,0,16.2,23.8,11.3,62.5
	l2.2,145.7l-25.9,1.3L481.8,243l-38.1,80.5c0,0-12,34.4-20.6,41.8L412.8,391.9z"/>
<path class="st1" d="M492.6,185.8c0.5,0,0.9,0,1.4,0.1l27-30.6l-3.1-9.4l13.6-6.6l7.2,16.1c1.2,2.7,0.5,5.8-1.8,7.7l-35.5,30.1
	c0.7,4.7-2.5,9.1-7.2,9.9c-4.7,0.7-9.1-2.5-9.9-7.2c-0.7-4.7,2.5-9.1,7.2-9.9C491.9,185.8,492.3,185.8,492.6,185.8L492.6,185.8z"/>
<path class="st2" d="M518.9,158.2l-11.3-26.5l4.4-18.5l4.7-6c0.7-0.3,1.5-0.3,2.2,0c1.7,0.7,3.2,2.9,4.4,6.4l10.6,30.1L518.9,158.2z
	"/>
<path class="st2" d="M460.4,79.7v-20c0-14.8,12-26.8,26.8-26.8c14.8,0,26.8,12,26.8,26.8v20c0,2-1.6,3.6-3.6,3.6H464
	C462,83.3,460.4,81.6,460.4,79.7z"/>
<circle class="st1" cx="481.7" cy="63.1" r="19.7"/>
<path class="st2" d="M454,61.3c0-11.7,9.5-21.2,21.2-21.2h4c11.7,0,21.2,9.5,21.2,21.2v0.4H492l-2.9-8.1l-0.6,8.1h-4.4l-1.5-4.1
	l-0.3,4.1H454V61.3z"/>
<path class="st2" d="M479.7,85.5c-0.8-1.1-0.9-2.6-0.3-3.8c4.2-8.1,10.2-23,2.3-32.2l-0.6-0.7h22.9v34.3l-20.8,3.7
	c-0.2,0-0.4,0.1-0.6,0.1C481.5,87,480.4,86.4,479.7,85.5z"/>
<polygon class="st3" points="212.9,389.9 225,394.3 247.6,349.5 229.6,343.1 "/>
<path class="st2" d="M205.6,400.6l5.6-15.7l23.9,8.5c8.4,3,12.8,12.3,9.8,20.7l-0.2,0.5L205.6,400.6z"/>
<polygon class="st3" points="291.8,401.9 304.7,401.9 310.9,352.2 291.8,352.2 "/>
<path class="st2" d="M288.5,397.7l25.4,0h0c8.9,0,16.2,7.2,16.2,16.2v0v0.5l-41.6,0L288.5,397.7z"/>
<path class="st0" d="M262.5,84.3l5.6-11.1c0,0,20.9,5.2,22.8,17.3L262.5,84.3z"/>
<polygon class="st2" points="239.3,211 254.6,296 214.1,367.6 238.3,377.1 279.3,307.7 284.5,288.8 287.7,387.6 309.5,386.9 
	319.5,294.7 303.5,208.9 "/>
<path class="st4" d="M268.3,231.1c-22.4,0-36.6-4.3-36.9-4.4l-0.5-0.1l11.7-54.1l0.5-49.9c0-21.1,13.9-36.7,15.8-38.2
	c0.7-2.6,2.4-4.8,4.8-5.9c4.6-2.1,10.3,0.4,10.6,0.5l17,6.4l0.1,0.2c0.2,0.6,22.6,74.2,22.6,74.2s-1.4,64.3-1.8,66.4
	C312.1,226.3,280.7,231.1,268.3,231.1z"/>
<circle class="st3" cx="285.5" cy="46.7" r="23"/>
<polygon class="st5" points="259.8,126.7 300.1,182.9 306,156.6 "/>
<path class="st3" d="M386,164.9c-4.3,3.4-10.5,2.7-13.9-1.6c-0.4-0.5-0.7-0.9-1-1.5l-34.6,5.5l7.5-16.6l31.8-2.7
	c5-2.3,10.9-0.1,13.1,4.9C390.9,157.2,389.6,162.1,386,164.9z"/>
<polygon class="st0" points="345.8,149.8 358.3,148.6 361.7,166 346.1,166.3 "/>
<path class="st4" d="M356,172l-61-5.4l-30.8-49l-0.1-0.4c-2-9.1,3.8-18.1,12.9-20.1c7.5-1.6,15.1,2,18.6,8.8l18.1,35.3l36.5,5.5
	L356,172z"/>
<path class="st2" d="M265.9,66.7l19.1,0.7c1.2,0,4.3-12.5,4.7-15.1c0.7-3.5,3.9-6,7.4-5.8c1.4,0.1,5-2.5,8.8-5.7
	c7.1-6,6.7-17.3-1.1-22.4c-0.2-0.1-0.4-0.3-0.6-0.4c-4.9-2.7-10.6-3.7-16.2-3.7c-5.1-0.1-10.3,0.6-14.8,3
	c-8,4.3-12.3,13.7-12.7,22.8s2.5,18,5.9,26.5"/>
<path class="st6" d="M744.6,415.3H1c-0.6,0-1-0.4-1-1s0.4-1,1-1h744c0.6,0,1,0.4,1,1C746,414.9,745.2,415.3,744.6,415.3z"/>
</svg>
