<?xml version="1.0" encoding="utf-8"?>
<!-- Generator: Adobe Illustrator 24.1.3, SVG Export Plug-In . SVG Version: 6.00 Build 0)  -->
<svg version="1.1" id="Layer_1" focusable="false" xmlns="http://www.w3.org/2000/svg" xmlns:xlink="http://www.w3.org/1999/xlink"
	 x="0px" y="0px" viewBox="0 0 384 455" style="enable-background:new 0 0 384 455;" xml:space="preserve">
<style type="text/css">
	.st0{fill:url(#SVGID_1_);}
</style>
<radialGradient id="SVGID_1_" cx="191" cy="193.254" r="226.2744" fx="204.1537" fy="-32.6377" gradientTransform="matrix(1 0 0 0.8733 0 57.6837)" gradientUnits="userSpaceOnUse">
	<stop  offset="0" style="stop-color:#E29B22"/>
	<stop  offset="1" style="stop-color:#E25822"/>
</radialGradient>
<path class="st0" d="M215,23.7c0-20.8-30.6-28.6-44.1-11.4C47,170.4,223,177.5,223,254.4c0,31.1-29.1,56.3-64.9,55.9
	c-35.2-0.4-63.2-26-63.2-56.7v-74.7c0-18.9-26.5-28.1-41.4-14.4C26.8,189-1,231.1-1,282.3C-1,374.8,85.1,450,191,450
	s192-75.2,192-167.7C383,133.6,215,113.8,215,23.7L215,23.7z"/>
</svg>
