<svg id="e4w98uAXgcD1" xmlns="http://www.w3.org/2000/svg" xmlns:xlink="http://www.w3.org/1999/xlink" viewBox="0 0 821 708.316550" shape-rendering="geometricPrecision" text-rendering="geometricPrecision"><style><![CDATA[#e4w98uAXgcD19_to {animation: e4w98uAXgcD19_to__to 3000ms linear infinite normal forwards}@keyframes e4w98uAXgcD19_to__to { 0% {transform: translate(656.143283px,490.721463px)} 50% {transform: translate(640.560309px,484.932333px)} 100% {transform: translate(656.137320px,490.719543px)}} #e4w98uAXgcD19_tr {animation: e4w98uAXgcD19_tr__tr 3000ms linear infinite normal forwards}@keyframes e4w98uAXgcD19_tr__tr { 0% {transform: rotate(-14.333554deg)} 50% {transform: rotate(1.997089deg)} 100% {transform: rotate(-14.330000deg)}} #e4w98uAXgcD23_to {animation: e4w98uAXgcD23_to__to 3000ms linear infinite normal forwards}@keyframes e4w98uAXgcD23_to__to { 0% {transform: translate(573.876470px,496.945654px)} 50% {transform: translate(581.876470px,492.945654px)} 100% {transform: translate(573.869868px,496.939740px)}} #e4w98uAXgcD23_tr {animation: e4w98uAXgcD23_tr__tr 3000ms linear infinite normal forwards}@keyframes e4w98uAXgcD23_tr__tr { 0% {transform: rotate(10.702785deg)} 50% {transform: rotate(0.425937deg)} 100% {transform: rotate(10.700000deg)}}]]></style><circle id="e4w98uAXgcD2" r="110.853000" transform="matrix(1 0 0 1 115.17700000000001 394.03100000000001)" fill="rgb(240,240,240)" stroke="none" stroke-width="1"/><polygon id="e4w98uAXgcD3" points="115.481000,394.030000 115.786000,394.030000 121.268000,708.317000 109.695000,708.317000 115.481000,394.030000" fill="rgb(240,240,240)" stroke="none" stroke-width="1"/><circle id="e4w98uAXgcD4" r="80.852900" transform="matrix(1 0 0 1 353.17700000000002 479.08499999999998)" fill="rgb(240,240,240)" stroke="none" stroke-width="1"/><polygon id="e4w98uAXgcD5" points="353.399000,479.085000 353.622000,479.085000 357.620000,708.317000 349.179000,708.317000 353.399000,479.085000" fill="rgb(240,240,240)" stroke="none" stroke-width="1"/><g id="e4w98uAXgcD6"><circle id="e4w98uAXgcD7" r="183.976000" transform="matrix(1 0 0 1 250.05389999999997 185.57278499999995)" fill="rgb(49,116,129)" stroke="none" stroke-width="1"/><polygon id="e4w98uAXgcD8" points="250.843000,183.975000 250.337000,183.975000 241.239000,705.577000 260.446000,705.577000 250.843000,183.975000" transform="matrix(1 0 0 1 -1.29510000000002 1.59678499999995)" fill="rgb(63,61,86)" stroke="none" stroke-width="1"/><path id="e4w98uAXgcD9" style="isolation:isolate" d="M576.690230,156.936090C612.134406,239.846103,582.271372,336.225762,506.158339,384.570008C430.045307,432.914255,330.112474,418.976239,270.132370,351.650560C298.778743,418.668722,364.284321,462.460188,437.163133,463.313142C510.041945,464.166096,576.554486,421.919734,606.761523,355.590376C636.968559,289.261018,625.175298,211.353431,576.690230,156.936090Z" transform="matrix(1 0 0 1 -190.79510000000005 -94.24491500000005)" opacity="0.1" fill="rgb(0,0,0)" stroke="none" stroke-width="1"/></g><path id="e4w98uAXgcD10" d="M1009.500000,803.992130L190.500000,803.992130C189.947715,803.992130,189.500000,803.544415,189.500000,802.992130C189.500000,802.439845,189.947715,801.992130,190.500000,801.992130L1009.500000,801.992130C1010.052285,801.992130,1010.500000,802.439845,1010.500000,802.992130C1010.500000,803.544415,1010.052285,803.992130,1009.500000,803.992130Z" transform="matrix(1 0 0 1 -189.50000000000000 -95.84170000000000)" fill="rgb(202,202,202)" stroke="none" stroke-width="1"/><polygon id="e4w98uAXgcD11" points="676.812000,698.025000 667.014000,698.025000 662.353000,660.235000 676.813000,660.235000 676.812000,698.025000" fill="rgb(255,182,182)" stroke="none" stroke-width="1"/><path id="e4w98uAXgcD12" d="M868.810090,803.363710L837.219350,803.362540L837.219350,802.963000C837.219825,796.172334,842.724684,790.667560,849.515350,790.667190L849.516130,790.667190L868.810670,790.667980Z" transform="matrix(1 0 0 1 -189.50000000000000 -95.84170000000000)" fill="rgb(47,46,65)" stroke="none" stroke-width="1"/><polygon id="e4w98uAXgcD13" points="722.243000,698.025000 712.446000,698.025000 707.785000,660.235000 722.245000,660.235000 722.243000,698.025000" fill="rgb(255,182,182)" stroke="none" stroke-width="1"/><path id="e4w98uAXgcD14" d="M914.242000,803.363710L882.651260,803.362540L882.651260,802.963000C882.651735,796.172334,888.156594,790.667560,894.947260,790.667190L894.948040,790.667190L914.242580,790.667980Z" transform="matrix(1 0 0 1 -189.50000000000000 -95.84170000000000)" fill="rgb(47,46,65)" stroke="none" stroke-width="1"/><polygon id="e4w98uAXgcD15" points="557.784000,698.025000 567.582000,698.025000 569.400000,660.031000 557.783000,660.235000 557.784000,698.025000" fill="rgb(255,182,182)" stroke="none" stroke-width="1"/><path id="e4w98uAXgcD16" d="M744.785150,790.668000L764.079690,790.667210L764.080470,790.667210C770.871136,790.667580,776.375995,796.172354,776.376470,802.963020L776.376470,803.362590L744.785730,803.363760Z" transform="matrix(1 0 0 1 -189.50000000000000 -95.84170000000000)" fill="rgb(47,46,65)" stroke="none" stroke-width="1"/><polygon id="e4w98uAXgcD17" points="518.178000,698.025000 527.975000,698.025000 529.917000,660.031000 518.176000,660.235000 518.178000,698.025000" fill="rgb(255,182,182)" stroke="none" stroke-width="1"/><path id="e4w98uAXgcD18" d="M705.178620,790.668000L724.473170,790.667210L724.473950,790.667210C731.264620,790.667569,736.769486,796.172350,736.769950,802.963020L736.769950,803.362590L705.179220,803.363760Z" transform="matrix(1 0 0 1 -189.50000000000000 -95.84170000000000)" fill="rgb(47,46,65)" stroke="none" stroke-width="1"/><g id="e4w98uAXgcD19_to" transform="translate(656.143283,490.721463)"><g id="e4w98uAXgcD19_tr" transform="rotate(-14.333554)"><g id="e4w98uAXgcD19" transform="translate(-640.889740,-484.992981)"><path id="e4w98uAXgcD20" d="M792.495190,633.753700C791.752121,631.834731,791.897206,629.685189,792.891406,627.883478C793.885606,626.081768,795.626791,624.812967,797.646440,624.418490L831.097230,570.641940L842.401300,580.685670L805.965750,630.388060C806.413614,633.902103,804.162284,637.195720,800.725465,638.054414C797.288646,638.913109,793.752758,637.065437,792.495190,633.753700Z" transform="matrix(0.99999998077534 -0.00019608496594 0.00019608496594 0.99999998077534 -189.50000000000000 -95.84170000000000)" fill="rgb(255,182,182)" stroke="none" stroke-width="1"/><path id="e4w98uAXgcD21" d="M857.025840,523.747550C857.025840,523.747550,847.812580,522.668140,842.677780,537.959030C837.542980,553.249920,823.963170,573.936470,823.963170,573.936470L838.816910,587.865580L868.526320,546.662580Z" transform="matrix(0.99999998077534 -0.00019608496594 0.00019608496594 0.99999998077534 -189.50000000000000 -95.84170000000000)" fill="rgb(228,228,228)" stroke="none" stroke-width="1"/></g></g></g><path id="e4w98uAXgcD22" d="M945.377620,653.657390C943.495278,652.825901,942.077916,651.203355,941.506919,649.226350C940.935922,647.249346,941.269946,645.120966,942.419110,643.413920L928.046610,581.734920L943.141790,580.843720L952.522880,641.752440C955.324394,643.920550,956.061417,647.841435,954.238401,650.878835C952.415385,653.916234,948.608612,655.109980,945.377620,653.657440Z" transform="matrix(1 0 0 1 -189.50000000000000 -95.84170000000000)" fill="rgb(255,182,182)" stroke="none" stroke-width="1"/><g id="e4w98uAXgcD23_to" transform="translate(573.876470,496.945654)"><g id="e4w98uAXgcD23_tr" transform="rotate(10.702785)"><g id="e4w98uAXgcD23" transform="translate(-581.970642,-493.252090)"><path id="e4w98uAXgcD24" d="M803.115890,631.100290C803.037135,628.802944,801.944848,626.658476,800.132938,625.243914C798.321028,623.829353,795.975619,623.290006,793.727810,623.771000L779.422890,600.164540L773.274370,613.123590L787.801200,633.553930C788.883290,637.360124,792.641185,639.755432,796.548379,639.129442C800.455574,638.503452,803.277057,635.054030,803.115890,631.100290Z" transform="matrix(1 0 0 1 -189.50000000000000 -95.84170000000000)" fill="rgb(255,182,182)" stroke="none" stroke-width="1"/><path id="e4w98uAXgcD25" d="M739.818760,545.125850L746.889090,538.959030C746.889090,538.959030,751.605330,538.903230,755.664000,546.159120C759.722670,553.415010,767.075750,576.836050,767.075750,576.836050L790.616290,616.711000L780.260060,623.830910L742.924630,571.616000Z" transform="matrix(1 0 0 1 -189.50000000000000 -95.84170000000000)" fill="rgb(49,116,129)" stroke="none" stroke-width="1"/></g></g></g><path id="e4w98uAXgcD26" d="M683.579650,655.792460C684.930988,653.932911,685.389245,651.570309,684.831113,649.340393C684.272981,647.110477,682.755793,645.242315,680.687800,644.238600L683.934020,616.827690L671.114020,623.261150L669.996810,648.304690C668.508187,651.971022,669.997040,656.171323,673.462386,658.081654C676.927731,659.991986,681.274224,659.008521,683.579640,655.792460Z" transform="matrix(1 0 0 1 -189.50000000000000 -95.84170000000000)" fill="rgb(255,182,182)" stroke="none" stroke-width="1"/><polygon id="e4w98uAXgcD27" points="669.045000,532.184000 664.890000,540.624000 661.618000,684.032000 682.995000,685.598000 703.056000,580.422000 707.894000,684.032000 725.474000,684.200000 744.491000,542.896000 669.045000,532.184000" transform="matrix(1 0 0 1 -0.00035000000003 0)" fill="rgb(47,46,65)" stroke="none" stroke-width="1"/><path id="e4w98uAXgcD28" d="M753.029070,628.025360L759.967070,632.135250C759.967070,632.135250,765.604510,635.723730,763.708740,660.684190C761.812970,685.644650,759.547540,785.647050,759.547540,785.647050L747.249540,785.647050L727.332000,666.188490L720.064430,786.941580L707.119140,786.294310C707.119140,786.294310,680.670480,648.816830,692.114830,633.896610Z" transform="matrix(1 0 0 1 -189.50000000000000 -95.84170000000000)" fill="rgb(47,46,65)" stroke="none" stroke-width="1"/><path id="e4w98uAXgcD29" d="M857.025840,524.747550L880.377750,516.954490L909.051570,517.375210L928.560650,525.161810L933.990650,638.737320C933.990650,638.737320,891.302350,664.310410,854.390060,636.465320Z" transform="matrix(1 0 0 1 -189.50000000000000 -95.84170000000000)" fill="rgb(228,228,228)" stroke="none" stroke-width="1"/><path id="e4w98uAXgcD30" d="M921.314000,527.307210L928.560660,525.161810C928.560660,525.161810,944.973530,527.349500,945.628490,545.006930C946.283450,562.664360,949.386630,590.298550,949.386630,590.298550L932.645920,593.635930Z" transform="matrix(1 0 0 1 -189.50000000000000 -95.84170000000000)" fill="rgb(228,228,228)" stroke="none" stroke-width="1"/><path id="e4w98uAXgcD31" d="M687.927560,539.692910C687.927560,539.692910,721.667140,528.846260,748.889090,538.959030L746.660500,591.467650L763.452000,632.426510C763.452000,632.426510,710.069620,653.133620,692.280000,635.731380L697.468310,594.703970Z" transform="matrix(1 0 0 1 -189.50000000000000 -95.84170000000000)" fill="rgb(49,116,129)" stroke="none" stroke-width="1"/><path id="e4w98uAXgcD32" d="M689.179220,542.282000L689.661420,538.992170C689.661420,538.992170,676.515260,539.964770,675.403180,552.631810C674.291100,565.298850,670.225060,636.776210,670.225060,636.776210L683.228560,639.365270L696.164320,566.004270Z" transform="matrix(1 0 0 1 -189.50000000000000 -95.84170000000000)" fill="rgb(49,116,129)" stroke="none" stroke-width="1"/><circle id="e4w98uAXgcD33" r="21.818000" transform="matrix(1 0 0 1 707.08199999999999 388.83300000000003)" fill="rgb(255,182,182)" stroke="none" stroke-width="1"/><path id="e4w98uAXgcD34" d="M734.753930,520.715340L695.313230,528.481820C693.623626,528.812548,691.985151,527.713193,691.650610,526.024340L688.303000,509.024000C685.825553,496.442732,694.016317,484.235232,706.597585,481.757785C719.178853,479.280338,731.386353,487.471102,733.863800,500.052370L737.211420,517.052670C737.542178,518.742294,736.442811,520.380804,734.753930,520.715340Z" transform="matrix(1 0 0 1 -189.50000000000000 -95.84170000000000)" fill="rgb(47,46,65)" stroke="none" stroke-width="1"/><circle id="e4w98uAXgcD35" r="17.022500" transform="matrix(1 0 0 1 526.84799999999996 410.73800000000000)" fill="rgb(255,182,182)" stroke="none" stroke-width="1"/><path id="e4w98uAXgcD36" d="M739.587850,500.691200L715.470850,505.440200L714.541670,502.026420L713.986980,505.732420L710.273470,506.463670L708.432050,499.697670L707.332620,507.042810L700.147170,508.457740L700.080170,508.117740C698.132480,498.167888,704.606400,488.519075,714.551840,486.548980L717.952070,485.879420C727.901973,483.931800,737.550781,490.405782,739.520870,500.351260Z" transform="matrix(1 0 0 1 -189.50000000000000 -95.84170000000000)" fill="rgb(47,46,65)" stroke="none" stroke-width="1"/><path id="e4w98uAXgcD37" d="M719.513780,527.012860C719.332170,527.048432,719.147806,527.068113,718.962780,527.071680L700.689660,527.433290L694.942470,498.247230L714.382250,494.419230L714.011460,495.075150C708.853080,504.203250,716.391460,515.873080,721.344090,522.016820C722.087760,522.934407,722.239649,524.197043,721.734810,525.264820C721.317786,526.170083,720.491692,526.820252,719.513780,527.012860Z" transform="matrix(1 0 0 1 -189.50000000000000 -95.84170000000000)" fill="rgb(47,46,65)" stroke="none" stroke-width="1"/><path id="e4w98uAXgcD38" d="M875.350760,465.005270C878.017250,464.183430,880.899600,464.591050,883.622670,465.200270L883.362240,465.861600C889.864600,462.093250,897.603330,460.008760,904.978610,461.452340C912.354200,462.895890,919.151740,468.330870,920.936460,475.631170C921.585107,478.548775,921.625026,481.568810,921.053720,484.502540C919.476390,493.217795,914.261616,500.848660,906.715000,505.484630C905.780450,506.050630,904.339000,506.454860,903.786510,505.512170C903.159510,504.441400,904.574730,503.353960,904.996970,502.187120C905.459030,500.910170,904.618660,499.493560,903.527030,498.685670C902.435400,497.877780,901.104210,497.458220,899.962650,496.722500C897.660574,495.057333,896.163183,492.502313,895.835390,489.680100C895.528471,486.889445,895.614306,484.069541,896.090390,481.302720C891.705915,482.906821,887.091558,483.793775,882.424830,483.929460C880.772126,484.081252,879.107669,483.818162,877.582350,483.164040C875.623170,482.165410,874.442420,480.139310,873.369440,478.219870Q872.695310,477.014260,872.021500,475.808630C871.051840,474.370074,870.463801,472.708625,870.312630,470.980380C870.313290,468.190000,872.684000,465.827110,875.350760,465.005270Z" transform="matrix(1 0 0 1 -189.50000000000000 -95.84170000000000)" fill="rgb(47,46,65)" stroke="none" stroke-width="1"/></svg>