<svg id="ehC2q8c67sA1" xmlns="http://www.w3.org/2000/svg" xmlns:xlink="http://www.w3.org/1999/xlink" viewBox="0 0 1135.180000 814.220000" shape-rendering="geometricPrecision" text-rendering="geometricPrecision"><style><![CDATA[#ehC2q8c67sA28_to {animation: ehC2q8c67sA28_to__to 3000ms linear infinite normal forwards}@keyframes ehC2q8c67sA28_to__to { 0% {transform: translate(537.929769px,490.733007px)} 50% {transform: translate(537.930832px,406.876993px)} 100% {transform: translate(537.930832px,490.733007px)}}]]></style><defs><linearGradient id="ehC2q8c67sA4-fill" x1="0" y1="13.800000" x2="0" y2="-13.790000" spreadMethod="pad" gradientUnits="userSpaceOnUse"><stop id="ehC2q8c67sA4-fill-0" offset="0%" stop-color="rgba(128,128,128,0.25)"/><stop id="ehC2q8c67sA4-fill-1" offset="54%" stop-color="rgba(128,128,128,0.12)"/><stop id="ehC2q8c67sA4-fill-2" offset="100%" stop-color="rgba(128,128,128,0.1)"/></linearGradient><linearGradient id="ehC2q8c67sA25-fill" x1="0" y1="11.510000" x2="0" y2="-11.520000" spreadMethod="pad" gradientUnits="userSpaceOnUse"><stop id="ehC2q8c67sA25-fill-0" offset="0%" stop-color="rgba(128,128,128,0.25)"/><stop id="ehC2q8c67sA25-fill-1" offset="54%" stop-color="rgba(128,128,128,0.12)"/><stop id="ehC2q8c67sA25-fill-2" offset="100%" stop-color="rgba(128,128,128,0.1)"/></linearGradient><linearGradient id="ehC2q8c67sA30-fill" x1="556.930000" y1="707.160000" x2="556.930000" y2="42.890000" spreadMethod="pad" gradientUnits="userSpaceOnUse"><stop id="ehC2q8c67sA30-fill-0" offset="0%" stop-color="rgba(128,128,128,0.25)"/><stop id="ehC2q8c67sA30-fill-1" offset="54%" stop-color="rgba(128,128,128,0.12)"/><stop id="ehC2q8c67sA30-fill-2" offset="100%" stop-color="rgba(128,128,128,0.1)"/></linearGradient><linearGradient id="ehC2q8c67sA54-fill" x1="456.950000" y1="628.140000" x2="456.950000" y2="692.540000" spreadMethod="pad" gradientUnits="userSpaceOnUse"><stop id="ehC2q8c67sA54-fill-0" offset="0%" stop-color="rgb(224,224,224)"/><stop id="ehC2q8c67sA54-fill-1" offset="31%" stop-color="rgb(252,204,99)"/><stop id="ehC2q8c67sA54-fill-2" offset="77%" stop-color="rgb(245,95,68)"/></linearGradient><linearGradient id="ehC2q8c67sA55-fill" x1="534.050000" y1="628.140000" x2="534.050000" y2="692.540000" spreadMethod="pad" gradientUnits="userSpaceOnUse"><stop id="ehC2q8c67sA55-fill-0" offset="0%" stop-color="rgb(224,224,224)"/><stop id="ehC2q8c67sA55-fill-1" offset="31%" stop-color="rgb(252,204,99)"/><stop id="ehC2q8c67sA55-fill-2" offset="77%" stop-color="rgb(245,95,68)"/></linearGradient><linearGradient id="ehC2q8c67sA56-fill" x1="582.350000" y1="628.140000" x2="582.350000" y2="692.540000" spreadMethod="pad" gradientUnits="userSpaceOnUse"><stop id="ehC2q8c67sA56-fill-0" offset="0%" stop-color="rgb(224,224,224)"/><stop id="ehC2q8c67sA56-fill-1" offset="31%" stop-color="rgb(252,204,99)"/><stop id="ehC2q8c67sA56-fill-2" offset="77%" stop-color="rgb(245,95,68)"/></linearGradient><linearGradient id="ehC2q8c67sA57-fill" x1="660.300000" y1="628.140000" x2="660.300000" y2="692.540000" spreadMethod="pad" gradientUnits="userSpaceOnUse"><stop id="ehC2q8c67sA57-fill-0" offset="0%" stop-color="rgb(224,224,224)"/><stop id="ehC2q8c67sA57-fill-1" offset="31%" stop-color="rgb(252,204,99)"/><stop id="ehC2q8c67sA57-fill-2" offset="77%" stop-color="rgb(245,95,68)"/></linearGradient><linearGradient id="ehC2q8c67sA62-fill" x1="766.050000" y1="409.230000" x2="766.050000" y2="340.570000" spreadMethod="pad" gradientUnits="userSpaceOnUse"><stop id="ehC2q8c67sA62-fill-0" offset="0%" stop-color="rgba(128,128,128,0.25)"/><stop id="ehC2q8c67sA62-fill-1" offset="54%" stop-color="rgba(128,128,128,0.12)"/><stop id="ehC2q8c67sA62-fill-2" offset="100%" stop-color="rgba(128,128,128,0.1)"/></linearGradient><linearGradient id="ehC2q8c67sA73-fill" x1="331.050000" y1="577.850000" x2="331.050000" y2="529.940000" spreadMethod="pad" gradientUnits="userSpaceOnUse"><stop id="ehC2q8c67sA73-fill-0" offset="0%" stop-color="rgba(128,128,128,0.25)"/><stop id="ehC2q8c67sA73-fill-1" offset="54%" stop-color="rgba(128,128,128,0.12)"/><stop id="ehC2q8c67sA73-fill-2" offset="100%" stop-color="rgba(128,128,128,0.1)"/></linearGradient></defs><path id="ehC2q8c67sA2" d="M1023.410000,751.250000C1014.187160,752.043265,1004.908361,751.919324,995.710000,750.880000C894.590000,739.700000,756.890000,742.880000,644.640000,812.430000C489.400000,908.600000,246.110000,826.270000,138.790000,781.480000C56.790000,747.270000,14.220000,663.480000,39.790000,584.830000C40.150000,583.720000,40.520000,582.610000,40.910000,581.500000C57,534.760000,88.760000,498.180000,128.090000,478.790000C162.370000,461.890000,212.420000,426.600000,234.690000,358.790000C243.890000,330.790000,256.510000,304.450000,272.900000,281.490000C316.790000,220,408.670000,128.430000,566.690000,129C594.395592,129.134221,621.893613,133.788720,648.100000,142.780000C705.830000,162.450000,757.970000,202.440000,797.730000,257.880000C823.100000,293.240000,861.120000,326.110000,915.550000,328.790000C991.090000,332.530000,1063.180000,367.700000,1117.260000,430.290000C1118.820000,432.090000,1120.360000,433.900000,1121.900000,435.730000C1218.190000,550.440000,1151.310000,740.070000,1023.410000,751.250000Z" transform="matrix(1 0 0 1 -32.41000000000000 -42.89000000000000)" fill="rgb(49,116,129)" stroke="none" stroke-width="1"/><g id="ehC2q8c67sA3" opacity="0.7"><circle id="ehC2q8c67sA4" r="13.800000" transform="matrix(1 0 0 1 277.45999999999998 683.30999999999995)" fill="url(#ehC2q8c67sA4-fill)" stroke="none" stroke-width="1"/></g><circle id="ehC2q8c67sA5" r="13.180000" transform="matrix(1 0 0 1 277.45999999999998 683.30999999999995)" opacity="0.2" fill="rgb(0,0,0)" stroke="none" stroke-width="1"/><circle id="ehC2q8c67sA6" r="5.100000" transform="matrix(1 0 0 1 203.11000000000001 414.13999999999999)" fill="rgb(255,255,255)" stroke="none" stroke-width="1"/><circle id="ehC2q8c67sA7" r="5.100000" transform="matrix(1 0 0 1 567.11000000000001 710.13999999999999)" fill="rgb(255,255,255)" stroke="none" stroke-width="1"/><circle id="ehC2q8c67sA8" r="2.850000" transform="matrix(1 0 0 1 352.11000000000001 736.13999999999999)" fill="rgb(255,255,255)" stroke="none" stroke-width="1"/><circle id="ehC2q8c67sA9" r="2.850000" transform="matrix(1 0 0 1 983.11000000000001 598.13999999999999)" fill="rgb(255,255,255)" stroke="none" stroke-width="1"/><circle id="ehC2q8c67sA10" r="2.850000" transform="matrix(1 0 0 1 820.11000000000001 342.13999999999999)" fill="rgb(255,255,255)" stroke="none" stroke-width="1"/><circle id="ehC2q8c67sA11" r="2.850000" transform="matrix(1 0 0 1 1051.10999999999990 467.13999999999999)" fill="rgb(255,255,255)" stroke="none" stroke-width="1"/><circle id="ehC2q8c67sA12" r="5.100000" transform="matrix(1 0 0 1 293.11000000000001 247.13999999999999)" fill="rgb(255,255,255)" stroke="none" stroke-width="1"/><polygon id="ehC2q8c67sA13" points="152.940000,592.210000 148.400000,592.210000 148.400000,587.670000 146.550000,587.670000 146.550000,592.210000 142.010000,592.210000 142.010000,594.060000 146.550000,594.060000 146.550000,598.590000 148.400000,598.590000 148.400000,594.060000 152.940000,594.060000 152.940000,592.210000" fill="rgb(255,255,255)" stroke="none" stroke-width="1"/><polygon id="ehC2q8c67sA14" points="266.940000,590.210000 262.400000,590.210000 262.400000,585.670000 260.550000,585.670000 260.550000,590.210000 256.010000,590.210000 256.010000,592.060000 260.550000,592.060000 260.550000,596.590000 262.400000,596.590000 262.400000,592.060000 266.940000,592.060000 266.940000,590.210000" fill="rgb(255,255,255)" stroke="none" stroke-width="1"/><polygon id="ehC2q8c67sA15" points="429.940000,682.210000 425.400000,682.210000 425.400000,677.670000 423.550000,677.670000 423.550000,682.210000 419.010000,682.210000 419.010000,684.060000 423.550000,684.060000 423.550000,688.590000 425.400000,688.590000 425.400000,684.060000 429.940000,684.060000 429.940000,682.210000" fill="rgb(255,255,255)" stroke="none" stroke-width="1"/><polygon id="ehC2q8c67sA16" points="656.970000,130.710000 654.900000,130.710000 654.900000,128.640000 654.060000,128.640000 654.060000,130.710000 651.990000,130.710000 651.990000,131.550000 654.060000,131.550000 654.060000,133.620000 654.900000,133.620000 654.900000,131.550000 656.970000,131.550000 656.970000,130.710000" fill="rgb(255,255,255)" stroke="none" stroke-width="1"/><polygon id="ehC2q8c67sA17" points="951.970000,320.710000 949.900000,320.710000 949.900000,318.640000 949.060000,318.640000 949.060000,320.710000 946.990000,320.710000 946.990000,321.550000 949.060000,321.550000 949.060000,323.620000 949.900000,323.620000 949.900000,321.550000 951.970000,321.550000 951.970000,320.710000" fill="rgb(255,255,255)" stroke="none" stroke-width="1"/><polygon id="ehC2q8c67sA18" points="777.970000,444.710000 775.900000,444.710000 775.900000,442.640000 775.060000,442.640000 775.060000,444.710000 772.990000,444.710000 772.990000,445.550000 775.060000,445.550000 775.060000,447.620000 775.900000,447.620000 775.900000,445.550000 777.970000,445.550000 777.970000,444.710000" fill="rgb(255,255,255)" stroke="none" stroke-width="1"/><polygon id="ehC2q8c67sA19" points="69.970000,522.710000 67.900000,522.710000 67.900000,520.640000 67.060000,520.640000 67.060000,522.710000 64.990000,522.710000 64.990000,523.550000 67.060000,523.550000 67.060000,525.620000 67.900000,525.620000 67.900000,523.550000 69.970000,523.550000 69.970000,522.710000" fill="rgb(255,255,255)" stroke="none" stroke-width="1"/><polygon id="ehC2q8c67sA20" points="154.970000,692.710000 152.900000,692.710000 152.900000,690.640000 152.060000,690.640000 152.060000,692.710000 149.990000,692.710000 149.990000,693.550000 152.060000,693.550000 152.060000,695.620000 152.900000,695.620000 152.900000,693.550000 154.970000,693.550000 154.970000,692.710000" fill="rgb(255,255,255)" stroke="none" stroke-width="1"/><polygon id="ehC2q8c67sA21" points="421.970000,155.710000 419.900000,155.710000 419.900000,153.640000 419.060000,153.640000 419.060000,155.710000 416.990000,155.710000 416.990000,156.550000 419.060000,156.550000 419.060000,158.620000 419.900000,158.620000 419.900000,156.550000 421.970000,156.550000 421.970000,155.710000" fill="rgb(255,255,255)" stroke="none" stroke-width="1"/><polygon id="ehC2q8c67sA22" points="295.970000,454.710000 293.900000,454.710000 293.900000,452.640000 293.060000,452.640000 293.060000,454.710000 290.990000,454.710000 290.990000,455.550000 293.060000,455.550000 293.060000,457.620000 293.900000,457.620000 293.900000,455.550000 295.970000,455.550000 295.970000,454.710000" fill="rgb(255,255,255)" stroke="none" stroke-width="1"/><polygon id="ehC2q8c67sA23" points="322.970000,368.710000 320.900000,368.710000 320.900000,366.640000 320.060000,366.640000 320.060000,368.710000 317.990000,368.710000 317.990000,369.550000 320.060000,369.550000 320.060000,371.620000 320.900000,371.620000 320.900000,369.550000 322.970000,369.550000 322.970000,368.710000" fill="rgb(255,255,255)" stroke="none" stroke-width="1"/><g id="ehC2q8c67sA24" opacity="0.7"><circle id="ehC2q8c67sA25" r="11.520000" transform="matrix(1 0 0 1 748.14999999999998 555.64999999999998)" fill="url(#ehC2q8c67sA25-fill)" stroke="none" stroke-width="1"/></g><circle id="ehC2q8c67sA26" r="10.670000" transform="matrix(1 0 0 1 748.14999999999998 555.64999999999998)" opacity="0.2" fill="rgb(0,0,0)" stroke="none" stroke-width="1"/><circle id="ehC2q8c67sA27" r="11.930000" transform="matrix(1 0 0 1 776.88000000000000 630.75999999999999)" opacity="0.2" fill="rgb(0,0,0)" stroke="none" stroke-width="1"/><g id="ehC2q8c67sA28_to" transform="translate(537.929769,490.733007)"><g id="ehC2q8c67sA28" transform="translate(-524.539993,-332.127003)"><g id="ehC2q8c67sA29" opacity="0.7"><path id="ehC2q8c67sA30" d="M702.380000,349.920000C702.462464,324.857068,696.457037,300.149026,684.880000,277.920000C679.390000,267.480000,674.380000,261,670.520000,257.010000C667.496735,253.816099,662.772938,252.906748,658.780000,254.750000C657.222834,255.302249,655.815671,256.209544,654.670000,257.400000C649.460000,262.800000,644.750000,269.940000,640.670000,277.530000C628.497698,300.288893,622.184419,325.720723,622.300000,351.530000L622.300000,367.010000L612.370000,367.010000L612.370000,187C612.370000,149.280000,603.930000,112.070000,587.370000,79.070000C579.530000,63.430000,572.370000,53.710000,566.880000,47.740000C564.183821,44.666342,560.293613,42.903994,556.205000,42.903994C552.116387,42.903994,548.226179,44.666342,545.530000,47.740000C538.090000,55.830000,531.370000,66.530000,525.530000,77.900000C508.140000,111.620000,499.310000,149.900000,499.310000,188.720000L499.310000,366.940000L490.730000,366.940000L490.730000,350.710000C490.838954,324.917428,484.525823,299.503381,472.360000,276.760000C468.250000,269.170000,463.540000,262.030000,458.360000,256.630000C455.271264,253.349706,450.405138,252.465693,446.360000,254.450000L446.720000,254.640000C445.464115,255.198854,444.326945,255.993176,443.370000,256.980000C439.520000,260.980000,434.510000,267.450000,429.020000,277.890000C417.442963,300.119026,411.437536,324.827068,411.520000,349.890000L411.520000,618.890000L442.160000,618.890000L438.780000,641L438.780000,707.130000L463.840000,707.130000L463.840000,641L460.490000,618.880000L490.690000,618.880000L490.690000,373.880000L499.270000,373.880000L499.270000,617.820000L523.740000,617.820000L520.230000,641L520.230000,707.130000L545.290000,707.130000L545.290000,641L541.780000,617.790000L574.780000,617.790000L571.250000,641L571.250000,707.130000L596.310000,707.130000L596.310000,641L592.800000,617.790000L612.340000,617.790000L612.340000,373.910000L622.270000,373.910000L622.270000,619.280000L630.320000,619.280000L630.320000,618.910000L656.940000,618.910000L653.600000,641L653.600000,707.130000L678.660000,707.130000L678.660000,641L675.310000,618.880000L702.380000,618.880000Z" transform="matrix(1 0 0 1 -32.41000000000000 -42.89000000000000)" fill="url(#ehC2q8c67sA30-fill)" stroke="none" stroke-width="1"/></g><polygon id="ehC2q8c67sA31" points="436.400000,585.250000 412.670000,585.250000 416.910000,556.440000 432.160000,556.440000 436.400000,585.250000" fill="rgb(83,84,97)" stroke="none" stroke-width="1"/><g id="ehC2q8c67sA32" opacity="0.1"><polygon id="ehC2q8c67sA33" points="415.730000,567.880000 433.340000,567.880000 432.160000,559.830000 416.910000,559.830000 415.730000,567.880000" fill="rgb(0,0,0)" stroke="none" stroke-width="1"/></g><polygon id="ehC2q8c67sA34" points="639.750000,585.250000 616.030000,585.250000 620.260000,556.440000 635.520000,556.440000 639.750000,585.250000" fill="rgb(83,84,97)" stroke="none" stroke-width="1"/><g id="ehC2q8c67sA35" opacity="0.1"><polygon id="ehC2q8c67sA36" points="619.080000,567.880000 636.700000,567.880000 635.520000,559.830000 620.260000,559.830000 619.080000,567.880000" fill="rgb(0,0,0)" stroke="none" stroke-width="1"/></g><polygon id="ehC2q8c67sA37" points="513.500000,585.250000 489.780000,585.250000 494.010000,556.440000 509.270000,556.440000 513.500000,585.250000" fill="rgb(83,84,97)" stroke="none" stroke-width="1"/><g id="ehC2q8c67sA38" opacity="0.1"><polygon id="ehC2q8c67sA39" points="492.830000,567.880000 510.450000,567.880000 509.270000,559.830000 494.010000,559.830000 492.830000,567.880000" fill="rgb(0,0,0)" stroke="none" stroke-width="1"/></g><polygon id="ehC2q8c67sA40" points="561.800000,585.250000 538.080000,585.250000 542.310000,556.440000 557.560000,556.440000 561.800000,585.250000" fill="rgb(83,84,97)" stroke="none" stroke-width="1"/><g id="ehC2q8c67sA41" opacity="0.1"><polygon id="ehC2q8c67sA42" points="541.130000,567.880000 558.750000,567.880000 557.560000,559.830000 542.310000,559.830000 541.130000,567.880000" fill="rgb(0,0,0)" stroke="none" stroke-width="1"/></g><rect id="ehC2q8c67sA43" width="169.460000" height="6.780000" rx="0" ry="0" transform="matrix(1 0 0 1 436.39999999999998 318.35000000000002)" fill="rgb(83,84,97)" stroke="none" stroke-width="1"/><path id="ehC2q8c67sA44" d="M664.460000,254.160000C662.649557,252.160030,660.077699,251.019064,657.380000,251.019064C654.682301,251.019064,652.110443,252.160030,650.300000,254.160000C645.370000,259.420000,640.910000,266.370000,637.020000,273.760000C625.481126,295.998694,619.513571,320.706226,619.630000,345.760000L619.630000,606.600000L694.630000,606.600000L694.630000,344.660000C694.723880,320.299439,689.045503,296.263148,678.060000,274.520000C672.850000,264.360000,668.110000,258,664.460000,254.160000Z" transform="matrix(1 0 0 1 -32.41000000000000 -42.89000000000000)" fill="rgb(224,224,224)" stroke="none" stroke-width="1"/><path id="ehC2q8c67sA45" d="M449.390000,254.160000C451.200443,252.160030,453.772301,251.019064,456.470000,251.019064C459.167699,251.019064,461.739557,252.160030,463.550000,254.160000C468.490000,259.420000,472.940000,266.370000,476.840000,273.760000C488.374360,296.000382,494.341643,320.706785,494.230000,345.760000L494.230000,606.600000L419.230000,606.600000L419.230000,344.660000C419.136120,320.299439,424.814497,296.263148,435.800000,274.520000C441,264.360000,445.740000,258,449.390000,254.160000Z" transform="matrix(1 0 0 1 -32.41000000000000 -42.89000000000000)" fill="rgb(224,224,224)" stroke="none" stroke-width="1"/><polygon id="ehC2q8c67sA46" points="387.250000,307.330000 405.050000,307.420000 405.050000,329.360000 387.250000,329.360000 387.250000,307.330000" fill="rgb(83,84,97)" stroke="none" stroke-width="1"/><polygon id="ehC2q8c67sA47" points="444.020000,307.330000 461.820000,307.420000 461.820000,329.360000 444.020000,329.360000 444.020000,307.330000" fill="rgb(83,84,97)" stroke="none" stroke-width="1"/><polygon id="ehC2q8c67sA48" points="587.220000,307.330000 605.010000,307.420000 605.010000,329.360000 587.220000,329.360000 587.220000,307.330000" fill="rgb(83,84,97)" stroke="none" stroke-width="1"/><polygon id="ehC2q8c67sA49" points="643.990000,307.330000 661.780000,307.420000 661.780000,329.360000 643.990000,329.360000 643.990000,307.330000" fill="rgb(83,84,97)" stroke="none" stroke-width="1"/><g id="ehC2q8c67sA50" opacity="0.1"><path id="ehC2q8c67sA51" d="M476.840000,273.420000C472.940000,266.030000,468.490000,259.080000,463.550000,253.820000C460.683182,250.640889,456.045613,249.769042,452.220000,251.690000C453.292008,252.224933,454.260403,252.946149,455.080000,253.820000C460.010000,259.080000,464.470000,266.030000,468.360000,273.420000C479.899627,295.658413,485.867227,320.366133,485.750000,345.420000L485.750000,606.240000L494.230000,606.240000L494.230000,345.430000C494.343660,320.373360,488.376309,295.663240,476.840000,273.420000Z" transform="matrix(1 0 0 1 -32.41000000000000 -42.89000000000000)" fill="rgb(0,0,0)" stroke="none" stroke-width="1"/></g><g id="ehC2q8c67sA52" opacity="0.1"><path id="ehC2q8c67sA53" d="M643.800000,274.140000C647.690000,266.750000,652.150000,259.800000,657.080000,254.540000C658.001750,253.543839,659.118107,252.747414,660.360000,252.200000C656.601487,250.555063,652.212187,251.497353,649.460000,254.540000C644.520000,259.800000,640.060000,266.750000,636.170000,274.140000C624.635640,296.380382,618.668357,321.086785,618.780000,346.140000L618.780000,607L626.410000,607L626.410000,346.160000C626.290330,321.099469,632.257978,296.384691,643.800000,274.140000Z" transform="matrix(1 0 0 1 -32.41000000000000 -42.89000000000000)" fill="rgb(0,0,0)" stroke="none" stroke-width="1"/></g><path id="ehC2q8c67sA54" d="M457.270000,692.540000L456.620000,692.540000C450.246634,692.540000,445.080000,687.373366,445.080000,681L445.080000,628.140000L468.810000,628.140000L468.810000,681C468.810000,687.373366,463.643366,692.540000,457.270000,692.540000Z" transform="matrix(1 0 0 1 -32.41000000000000 -42.89000000000000)" fill="url(#ehC2q8c67sA54-fill)" stroke="none" stroke-width="1"/><path id="ehC2q8c67sA55" d="M534.380000,692.540000L533.720000,692.540000C527.350540,692.534481,522.189998,687.369463,522.190000,681L522.190000,628.140000L545.910000,628.140000L545.910000,681C545.910002,687.369463,540.749460,692.534481,534.380000,692.540000Z" transform="matrix(1 0 0 1 -32.41000000000000 -42.89000000000000)" fill="url(#ehC2q8c67sA55-fill)" stroke="none" stroke-width="1"/><path id="ehC2q8c67sA56" d="M582.670000,692.540000L582,692.540000C575.638353,692.523462,570.489979,687.361669,570.490000,681L570.490000,628.140000L594.210000,628.140000L594.210000,681C594.210000,684.060598,592.994182,686.995842,590.830012,689.160012C588.665842,691.324182,585.730598,692.540000,582.670000,692.540000Z" transform="matrix(1 0 0 1 -32.41000000000000 -42.89000000000000)" fill="url(#ehC2q8c67sA56-fill)" stroke="none" stroke-width="1"/><path id="ehC2q8c67sA57" d="M660.630000,692.540000L660,692.540000C656.935938,692.545310,653.995553,691.331837,651.827056,689.167091C649.658558,687.002346,648.439995,684.064067,648.440000,681L648.440000,628.140000L672.160000,628.140000L672.160000,681C672.160002,687.369463,666.999460,692.534481,660.630000,692.540000Z" transform="matrix(1 0 0 1 -32.41000000000000 -42.89000000000000)" fill="url(#ehC2q8c67sA57-fill)" stroke="none" stroke-width="1"/><path id="ehC2q8c67sA58" d="M566.340000,49.640000C563.831940,46.655859,560.133136,44.932878,556.235000,44.932878C552.336864,44.932878,548.638060,46.655859,546.130000,49.640000C539.130000,57.520000,532.730000,67.930000,527.130000,79.010000C510.670000,111.850000,502.310000,149.130000,502.310000,186.930000L502.310000,605.540000L609.310000,605.540000L609.310000,185.250000C609.310000,148.520000,601.310000,112.250000,585.670000,80.150000C578.320000,64.920000,571.550000,55.450000,566.340000,49.640000Z" transform="matrix(1 0 0 1 -32.41000000000000 -42.89000000000000)" fill="rgb(238,238,238)" stroke="none" stroke-width="1"/><rect id="ehC2q8c67sA59" width="55.840000" height="25.590000" rx="11" ry="11" transform="matrix(1 0 0 1 494.79000000000002 53.25000000000000)" fill="rgb(83,84,97)" stroke="none" stroke-width="1"/><g id="ehC2q8c67sA60" opacity="0.1"><rect id="ehC2q8c67sA61" width="105.910000" height="4.110000" rx="0" ry="0" transform="matrix(1 0 0 1 470.48000000000002 158.34999999999999)" fill="rgb(0,0,0)" stroke="none" stroke-width="1"/></g></g></g><path id="ehC2q8c67sA62" d="M793.450000,354.220000L793.450000,354.220000C790.672782,350.572964,787.198921,347.513791,783.230000,345.220000L783.230000,345.220000C770.731575,338.013114,755.060740,339.389683,744.010172,348.665177C732.959604,357.940671,728.887523,373.135676,733.818863,386.694132C738.750203,400.252588,751.632604,409.281085,766.060000,409.290000C766.790000,409.290000,767.520000,409.290000,768.230000,409.210000C780.835053,408.414655,791.984655,400.760260,797.256333,389.282920C802.528012,377.805580,801.069763,364.360250,793.460000,354.280000Z" transform="matrix(1 0 0 1 -32.41000000000000 -42.89000000000000)" fill="url(#ehC2q8c67sA62-fill)" stroke="none" stroke-width="1"/><path id="ehC2q8c67sA63" d="M798.500000,374.900000C798.497266,392.023678,785.189474,406.198227,768.100000,407.280000C767.430000,407.280000,766.740000,407.350000,766.050000,407.350000C752.398778,407.358136,740.201242,398.824272,735.530095,385.997101C730.858947,373.169930,734.712511,358.790891,745.172239,350.018774C755.631967,341.246658,770.462394,339.956251,782.280000,346.790000L782.280000,346.790000C786.038467,348.970799,789.322867,351.881199,791.940000,355.350000L791.940000,355.350000C796.204021,360.974855,798.508162,367.841615,798.500000,374.900000Z" transform="matrix(1 0 0 1 -32.41000000000000 -42.89000000000000)" opacity="0.2" fill="rgb(0,0,0)" stroke="none" stroke-width="1"/><path id="ehC2q8c67sA64" d="M758.060000,354.310000C756.382394,355.031975,754.764084,355.884596,753.220000,356.860000C752.189194,357.423091,751.302722,358.217151,750.630000,359.180000C749.947938,360.171437,749.924318,361.474495,750.570000,362.490000C751.360000,363.570000,752.880000,363.730000,754.220000,363.810000C755.627149,363.989237,757.056639,363.845604,758.400000,363.390000C759.307057,362.941370,760.131958,362.342978,760.840000,361.620000L763.630000,359.090000C764.630000,358.210000,765.630000,357,765.240000,355.760000C764.771346,354.860250,763.879714,354.258304,762.870000,354.160000C760.464836,353.691374,757.971335,354.129518,755.870000,355.390000" transform="matrix(1 0 0 1 -32.41000000000000 -42.89000000000000)" opacity="0.1" fill="rgb(0,0,0)" stroke="none" stroke-width="1"/><g id="ehC2q8c67sA65" opacity="0.1"><circle id="ehC2q8c67sA66" r="1.710000" transform="matrix(1 0 0 1 714 344.81999999999999)" fill="rgb(0,0,0)" stroke="none" stroke-width="1"/></g><g id="ehC2q8c67sA67" opacity="0.1"><circle id="ehC2q8c67sA68" r="6.260000" transform="matrix(1 0 0 1 748.72000000000003 334)" fill="rgb(0,0,0)" stroke="none" stroke-width="1"/></g><g id="ehC2q8c67sA69" opacity="0.1"><path id="ehC2q8c67sA70" d="M792,355.350000L792,355.350000C791.949218,359.907024,788.329187,363.621250,783.774970,363.789048C779.220753,363.956847,775.337210,360.519088,774.951217,355.978156C774.565224,351.437225,777.812802,347.393299,782.330000,346.790000L782.330000,346.790000C786.092067,348.969717,789.379943,351.880185,792,355.350000Z" transform="matrix(1 0 0 1 -32.41000000000000 -42.89000000000000)" fill="rgb(0,0,0)" stroke="none" stroke-width="1"/></g><g id="ehC2q8c67sA71" opacity="0.1"><path id="ehC2q8c67sA72" d="M792.580000,393.580000C786.925452,401.628973,777.917731,406.670058,768.100000,407.280000C768.100000,406.830000,768.040000,406.380000,768.040000,405.920000C768.045552,400.112409,771.321974,394.803194,776.510510,392.194126C781.699046,389.585058,787.914780,390.121119,792.580000,393.580000Z" transform="matrix(1 0 0 1 -32.41000000000000 -42.89000000000000)" fill="rgb(0,0,0)" stroke="none" stroke-width="1"/></g><path id="ehC2q8c67sA73" d="M350.170000,539.470000L350.170000,539.470000C348.233680,536.909745,345.806375,534.761205,343.030000,533.150000L343.030000,533.150000C334.294689,528.025128,323.282465,528.935265,315.507053,535.424713C307.731641,541.914161,304.866700,552.586065,308.346682,562.097095C311.826663,571.608126,320.902501,577.911031,331.030000,577.850000C331.540000,577.850000,332.030000,577.850000,332.550000,577.800000C341.327270,577.209181,349.077891,571.863612,352.748786,563.868985C356.419682,555.874358,355.422483,546.512049,350.150000,539.470000Z" transform="matrix(1 0 0 1 -32.41000000000000 -42.89000000000000)" fill="url(#ehC2q8c67sA73-fill)" stroke="none" stroke-width="1"/><path id="ehC2q8c67sA74" d="M353.690000,553.900000C353.687470,565.846645,344.402790,575.735420,332.480000,576.490000C332.010000,576.490000,331.480000,576.490000,331.050000,576.490000C321.533634,576.487680,313.034521,570.534558,309.780346,561.591875C306.526172,552.649192,309.211654,542.626081,316.500963,536.508303C323.790272,530.390525,334.127246,529.484137,342.370000,534.240000L342.370000,534.240000C344.996036,535.768135,347.288102,537.808550,349.110000,540.240000L349.110000,540.240000C352.091291,544.168962,353.700335,548.967989,353.690000,553.900000Z" transform="matrix(1 0 0 1 -32.41000000000000 -42.89000000000000)" opacity="0.2" fill="rgb(0,0,0)" stroke="none" stroke-width="1"/><path id="ehC2q8c67sA75" d="M325.470000,539.540000C324.300652,540.037900,323.173622,540.629842,322.100000,541.310000C321.384253,541.709452,320.766061,542.262750,320.290000,542.930000C319.836210,543.633141,319.836210,544.536859,320.290000,545.240000C320.961608,545.903007,321.889588,546.239125,322.830000,546.160000C323.812719,546.286815,324.811421,546.187629,325.750000,545.870000C326.385823,545.556013,326.963973,545.136770,327.460000,544.630000L329.400000,542.870000C330.080000,542.250000,330.820000,541.410000,330.520000,540.550000C330.208626,539.909532,329.580176,539.482947,328.870000,539.430000C327.196194,539.102194,325.460295,539.408739,324,540.290000" transform="matrix(1 0 0 1 -32.41000000000000 -42.89000000000000)" opacity="0.1" fill="rgb(0,0,0)" stroke="none" stroke-width="1"/><g id="ehC2q8c67sA76" opacity="0.1"><circle id="ehC2q8c67sA77" r="1.190000" transform="matrix(1 0 0 1 284.93000000000001 519.94000000000005)" fill="rgb(0,0,0)" stroke="none" stroke-width="1"/></g><g id="ehC2q8c67sA78" opacity="0.1"><circle id="ehC2q8c67sA79" r="4.370000" transform="matrix(1 0 0 1 309.16000000000003 512.39999999999998)" fill="rgb(0,0,0)" stroke="none" stroke-width="1"/></g><g id="ehC2q8c67sA80" opacity="0.1"><path id="ehC2q8c67sA81" d="M349.120000,540.260000L349.120000,540.260000C349.094810,543.470041,346.547460,546.091589,343.339465,546.208909C340.131469,546.326229,337.399435,543.897754,337.139836,540.698128C336.880237,537.498502,339.185050,534.661366,342.370000,534.260000L342.370000,534.260000C344.999637,535.787049,347.295180,537.827532,349.120000,540.260000Z" transform="matrix(1 0 0 1 -32.41000000000000 -42.89000000000000)" fill="rgb(0,0,0)" stroke="none" stroke-width="1"/></g><g id="ehC2q8c67sA82" opacity="0.1"><path id="ehC2q8c67sA83" d="M349.560000,566.930000C345.614524,572.545814,339.329975,576.063395,332.480000,576.490000C332.480000,576.180000,332.480000,575.860000,332.480000,575.490000C332.483696,571.438321,334.769315,567.734228,338.389010,565.913809C342.008704,564.093390,346.345142,564.467115,349.600000,566.880000Z" transform="matrix(1 0 0 1 -32.41000000000000 -42.89000000000000)" fill="rgb(0,0,0)" stroke="none" stroke-width="1"/></g><polyline id="ehC2q8c67sA84" points="837.690000,539.420000 859.490000,551.020000 842.470000,570.060000" fill="none" stroke="none" stroke-width="1"/><circle id="ehC2q8c67sA85" r="1.840000" transform="matrix(1 0 0 1 954.89999999999998 428.23000000000002)" fill="rgb(255,255,255)" stroke="none" stroke-width="1"/></svg>