<?xml version="1.0" encoding="utf-8"?>
<!-- Generator: Adobe Illustrator 24.1.3, SVG Export Plug-In . SVG Version: 6.00 Build 0)  -->
<svg version="1.1" id="body_1" xmlns="http://www.w3.org/2000/svg" xmlns:xlink="http://www.w3.org/1999/xlink" x="0px" y="0px"
	 viewBox="0 0 256 256" style="enable-background:new 0 0 256 256;" xml:space="preserve">
<style type="text/css">
	.st0{fill:#5DA5AF;}
	.st1{fill:#317481;}
</style>
<g transform="matrix(0.5 0 0 0.5 0 0)">
	<g transform="matrix(8 0 0 8 0 0)">
	</g>
	<path class="st0" d="M376,120v32v32l56,32v-64L376,120z"/>
	<g transform="matrix(8 0 0 8 0 0)">
	</g>
	<path class="st0" d="M432,216l56-32v-64l-56,32V216z"/>
	<g transform="matrix(8 0 0 8 0 0)">
	</g>
	<path class="st0" d="M256,152l56-32V56l-56,32V152z"/>
	<g transform="matrix(8 0 0 8 0 0)">
	</g>
	<path class="st0" d="M256,88l-56-32v64l56,32V88z"/>
	<g transform="matrix(8 0 0 8 0 0)">
	</g>
	<path class="st0" d="M24,120v64l56,32v-64L24,120z"/>
	<g transform="matrix(8 0 0 8 0 0)">
	</g>
	<path class="st0" d="M136,152v-32l-56,32v64l56-32V152z"/>
	<g transform="matrix(8 0 0 8 0 0)">
	</g>
	<path class="st0" d="M256,320l56-32v-64l-56,32V320z"/>
	<g transform="matrix(8 0 0 8 0 0)">
	</g>
	<path class="st0" d="M200,224v64l56,32v-64L200,224z"/>
	<g transform="matrix(8 0 0 8 0 0)">
	</g>
	<path class="st0" d="M432,424l56-32v-64l-56,32V424z"/>
	<g transform="matrix(8 0 0 8 0 0)">
	</g>
	<path class="st0" d="M376,328v64l56,32v-64L376,328z"/>
	<g transform="matrix(8 0 0 8 0 0)">
	</g>
	<path class="st0" d="M256,424v64l56-32v-24v-40L256,424z"/>
	<g transform="matrix(8 0 0 8 0 0)">
	</g>
	<path class="st0" d="M200,392v40v24l56,32v-64L200,392z"/>
	<g transform="matrix(8 0 0 8 0 0)">
	</g>
	<path class="st0" d="M80,360v56V360l-56-32v64l56,32l56-32v-64L80,360z"/>
	<g transform="matrix(8 0 0 8 0 0)">
	</g>
	<path class="st1" d="M492,190.9c2.5-1.4,4-4.1,4-6.9l0,0v-64c0-2.9-1.5-5.5-4-6.9l0,0l-56-32c-2.5-1.4-5.5-1.4-7.9,0l0,0l-56,32
		c-2.5,1.4-4.1,4.1-4.1,6.9l0,0v19.1l-48-24V56c0-2.9-1.5-5.5-4-6.9l0,0l-56-32c-2.5-1.4-5.5-1.4-7.9,0l0,0l-56,32
		c-2.5,1.4-4.1,4.1-4.1,6.9l0,0v59.1l-48,24V120c0-2.9-1.5-5.5-4-6.9l0,0l-56-32c-2.5-1.4-5.5-1.4-7.9,0l0,0l-56,32
		c-2.5,1.4-4.1,4.1-4.1,6.9l0,0v64c0,2.9,1.5,5.5,4,6.9l0,0l52,29.7v70.7l-52,29.7c-2.5,1.4-4,4.1-4,6.9l0,0v64c0,2.9,1.5,5.5,4,6.9
		l0,0l56,32c2.5,1.4,5.5,1.4,7.9,0l0,0l51.8-29.6l56.2,35.1V456c0,2.9,1.5,5.5,4,6.9l0,0l56,32c2.5,1.4,5.5,1.4,7.9,0l0,0l56-32
		c2.5-1.4,4.1-4.1,4.1-6.9l0,0v-19.6l56.2-35.1l51.8,29.6c2.5,1.4,5.5,1.4,7.9,0l0,0l56-32c2.5-1.4,4-4.1,4-6.9l0,0v-64
		c0-2.9-1.5-5.5-4-6.9l0,0l-52-29.7v-70.7L492,190.9z M440,202.2v-45.6l40-22.9v45.6L440,202.2z M432,350.8L392.1,328l39.9-22.8
		l39.9,22.8L432,350.8z M384,133.8l40,22.9v45.6l-40-22.9V133.8z M432,97.2l39.9,22.8L432,142.8L392.1,120L432,97.2z M256,414.8
		L216.1,392l39.9-22.8l39.9,22.8L256,414.8z M208,237.8l40,22.9v45.6l-40-22.9V237.8z M264,260.6l40-22.9v45.6l-40,22.9V260.6z
		 M256,246.8L216.1,224l39.9-22.8l39.9,22.8L256,246.8z M208,69.8l40,22.9v45.6l-40-22.9V69.8z M264,92.6l40-22.9v45.6l-40,22.9
		V92.6z M256,33.2L295.9,56L256,78.8L216.1,56L256,33.2z M88,156.6l40-22.9v45.6l-40,22.9V156.6z M80,97.2l39.9,22.8L80,142.8
		L40.1,120L80,97.2z M32,133.8l40,22.9v45.6l-40-22.9V133.8z M80,350.8L40.1,328L80,305.2l39.9,22.8L80,350.8z M32,341.8l40,22.9
		v45.6l-40-22.9V341.8z M88,410.2v-45.6l40-22.9v45.6L88,410.2z M144,387.6V328c0-2.9-1.5-5.5-4-6.9l0,0l-52-29.7v-70.7l52-29.7
		c2.5-1.4,4-4.1,4-6.9l0,0v-27.1l55.8-27.9l48.2,27.6v30.7l-52,29.7c-2.5,1.4-4,4.1-4,6.9l0,0v64c0,2.9,1.5,5.5,4,6.9l0,0l52,29.7
		v30.7l-52,29.7c-2.5,1.4-4,4.1-4,6.9l0,0v25.6L144,387.6z M208,405.8l40,22.9v45.6l-40-22.9V405.8z M264,474.2v-45.6l40-22.9v45.6
		L264,474.2z M316,385.1l-52-29.7v-30.7l52-29.7c2.5-1.4,4-4.1,4-6.9l0,0v-64c0-2.9-1.5-5.5-4-6.9l0,0l-52-29.7v-30.7l48.2-27.6
		l55.8,27.9V184c0,2.9,1.5,5.5,4,6.9l0,0l52,29.7v70.7l-52,29.7c-2.5,1.4-4,4.1-4,6.9l0,0v59.6l-48,30V392
		C320,389.1,318.5,386.5,316,385.1z M384,341.8l40,22.9v45.6l-40-22.9V341.8z M440,410.2v-45.6l40-22.9v45.6L440,410.2z"/>
</g>
</svg>
